<?xml version="1.0" encoding="UTF-8"?>
<svg id="cherry" data-name="cherry" xmlns="http://www.w3.org/2000/svg" viewBox="0 0 724.67 800">
  <defs>
    <style>
      .cls-1 {
        stroke-width: 0px;
        transition: fill 0.1s ease, fill-opacity 0.1s ease; 
      }

      .cls-1:hover {
        fill: #FFD700; 
        fill-opacity: 0.9; 
      }
    </style>
  </defs>
<script>
console.log('Functional!');



const cherry = document.querySelector('#cherry');

function logThisId() {
    console.log(this);
    console.log('it works!:', this.id);
}

cherry.addEventListener('click', logThisId);
</script>
  <g id="cherry" data-name="cherry">
    <g>
      <path class="cls-1" d="M163.37,622.82c-37.91-8.48-69.96-37.19-81.62-73.14-2.28-7.05-9.84-10.9-16.91-8.63-7.05,2.28-10.91,9.85-8.63,16.91,14.76,45.48,53.57,80.36,101.29,91.05.98.21,1.97.32,2.94.32,6.15,0,11.69-4.24,13.08-10.49,1.62-7.23-2.93-14.4-10.16-16.02Z"/>
      <path class="cls-1" d="M510.4,721.37c-37.91-8.48-69.96-37.19-81.62-73.14-2.28-7.05-9.85-10.9-16.91-8.63-7.05,2.28-10.91,9.85-8.63,16.91,14.76,45.48,53.57,80.36,101.29,91.05.98.21,1.97.32,2.94.32,6.15,0,11.69-4.24,13.08-10.49,1.62-7.22-2.93-14.4-10.16-16.02Z"/>
      <path class="cls-1" d="M63.46,499.11c.9.17,1.78.27,2.67.27,6.25,0,11.86-4.4,13.14-10.76,3.05-15.1,8.56-29.27,16.4-42.13,3.86-6.33,1.87-14.59-4.47-18.45-6.32-3.85-14.57-1.87-18.45,4.47-9.49,15.54-16.14,32.62-19.81,50.79-1.45,7.26,3.26,14.33,10.52,15.81Z"/>
      <path class="cls-1" d="M629.73,433.17c29.43-98.07-2.82-187.37-70.02-294.15,9.19,2.07,18.63,3.46,28.42,3.46s20.72-1.14,31.32-3.45c36.31-7.92,69.27-29,90.41-57.84l7.93-10.83-10.83-7.93c-51.38-37.66-129.06-27.47-177.87,19.51-10.16-22.6-27.36-42.39-50.57-57.29C447.24,4.58,409.04-3.82,373.7,1.62l-13.26,2.04,2.04,13.26c5.41,35.15,26.6,66.2,59.68,87.42,25.03,16.06,54.5,24.65,83.38,24.65,3.1,0,6.17-.15,9.25-.35-6.15,118.01-94.42,223.32-182.47,257.06-31.99-42.08-78.8-68.82-131.02-68.82h-26.84C78.26,316.88,0,407.19,0,518.18c0,103.6,84.28,187.88,187.88,187.88,68.45,0,128.31-36.92,161.15-91.78,1.17,102.6,84.89,185.72,187.77,185.72s187.88-84.28,187.88-187.88c0-77.93-38.66-145.51-94.95-178.95ZM678.79,76.57c-35.39,37.25-93.51,49.51-135.18,28.68,35.39-37.23,93.52-49.51,135.18-28.68ZM392.36,26.87c24.72-.66,50.11,6.54,71.68,20.38,21.89,14.05,37.24,33.2,44.3,54.89-24.42.81-50.1-6.54-71.68-20.37-21.89-14.05-37.24-33.2-44.3-54.9ZM539.05,156.56c68.71,110.46,88.83,187.26,66.58,264.84-17.43-6.76-36.02-10.59-55.41-10.59h-26.84c-62.54,0-117.34,38.29-148.14,95.5-1.83-35.97-11.76-69.41-27.87-97.88,89.27-36.61,174.93-135.3,191.69-251.86ZM187.88,679.22c-88.8,0-161.04-72.24-161.04-161.04,0-96.19,66.23-174.46,147.62-174.46h26.84c40.27,0,76.79,19.19,103.44,50.2-9.7,2.01-19.3,3.11-28.66,3.11-7.41,0-13.42,6.01-13.42,13.42s6.01,13.42,13.42,13.42c14.86,0,30.13-2.36,45.48-6.52,17.16,28.5,27.38,63.26,27.38,100.84-.01,88.79-72.27,161.03-161.05,161.03ZM536.8,773.16c-88.8,0-161.04-72.24-161.04-161.04,0-96.19,66.23-174.46,147.62-174.46h26.84c16.37,0,32.09,3.3,46.81,9.14-5.03,12.51-11.13,25.14-18.28,38.02-3.61,6.48-1.26,14.65,5.21,18.25,2.07,1.14,4.31,1.69,6.51,1.69,4.72,0,9.29-2.5,11.74-6.9,7.35-13.25,13.29-26.2,18.47-39.01,45.94,29.6,77.16,87.2,77.16,153.27,0,88.8-72.25,161.04-161.04,161.04Z"/>
      <path class="cls-1" d="M295.24,437.66c-29.6,0-53.68-24.08-53.68-53.68,0-7.41-6.01-13.42-13.42-13.42s-13.42,6.01-13.42,13.42c0,44.41,36.11,80.52,80.52,80.52,7.41,0,13.42-6.01,13.42-13.42s-6.01-13.42-13.42-13.42Z"/>
      <path class="cls-1" d="M617.32,531.6c-29.6,0-53.68-24.08-53.68-53.68,0-7.41-6.01-13.42-13.42-13.42s-13.42,6.01-13.42,13.42c0,44.41,36.11,80.52,80.52,80.52,7.41,0,13.42-6.01,13.42-13.42s-6.01-13.42-13.42-13.42Z"/>
    </g>
  </g>
</svg>