<?xml version="1.0" encoding="UTF-8"?>
<svg id="cup" data-name="cup" xmlns="http://www.w3.org/2000/svg" viewBox="0 0 715.19 711.43">
  <defs>
    <style>
      .cls-1 {
        fill-rule: evenodd;
        stroke-width: 0px;
        transform-origin: center bottom; 
        transition: transform 0.3s ease-in-out; 
      }

      
      .cls-1:hover {
        animation: bounce 0.2s ease infinite;
      }

      @keyframes bounce {
        0%, 20%, 50%, 80%, 100% {
          transform: translateY(0);
        }
        20% {
          transform: translateY(-15px);
        }
        30% {
          transform: translateY(-7px);
        }
      }
    </style>
  </defs>
   <script>
console.log('Functional!');



const cup = document.querySelector('#cup');

function logThisId() {
    console.log(this);
    console.log('it works!:', this.id);
}

cup.addEventListener('click', logThisId);
</script>
  <g id="cup" data-name="cup">
    <path class="cls-1" d="M715,406.27v-4.5c.25-4.5.25-9,0-13.5v-16.5c-2.77-4-5.28-8.17-7.5-12.5v-13.5c0-4.5,0-8.5-4-12.5-1.63-3.55-2.97-7.23-4-11v-2.5c-1.96-3.7-3.64-7.54-5-11.5-1.46-3.43-3.13-6.77-5-10l-6-11.5v-4.5c-14.02-22.67-30.82-43.49-50-62h-137.5l32.5-122c2.47-8.52,8.23-15.72,16-20,8.09-3.72,17.41-3.72,25.5,0l93.5,35.5,22.5-58-93.5-49.5c-48.47-18.6-102.84,5.61-121.44,54.07-1.18,3.09-2.21,6.23-3.06,9.43l-36.5,139h-108.5c-7.62-82.84-78.35-145.46-161.5-143C75.62,62.95,3.52,129.91,0,215.77c-.07,62.46,38.57,118.43,97,140.5.24,4.16.24,8.34,0,12.5v15.5c-.25,4.5-.25,9,0,13.5v22.5c6.48,163.61,141.77,292.48,305.5,291,167,5.34,306.8-125.52,312.5-292.5v-12.5ZM402.5,648.77c-132.49,5.36-244.32-97.52-250-230,.38-54.66,21.05-107.22,58-147.5h384.5c37.39,40.96,57.93,94.54,57.5,150-7.01,131.48-118.44,232.89-250,227.5ZM62.5,217.77c2.67-52.12,47.09-92.21,99.21-89.54.26.01.53.03.79.04,48.94-2.45,91.94,32.17,100,80.5h-78.5c-19.32,18.38-36.13,39.23-50,62,.1,1.33,.1,2.67,0,4l-6,11.5c-1.54,2.9-2.88,5.91-4,9-34.13-11.24-58.31-41.71-61.5-77.5Z"/>
  </g>
</svg>