<?xml version="1.0" encoding="UTF-8"?>
<svg id="jalapenos" data-name="jalapenos" xmlns="http://www.w3.org/2000/svg" viewBox="0 0 471.01 609.36">
  <defs>
    <style>
      .cls-1 {
        fill: #332;
        transition: opacity 0.1s ease; 
      }

      .cls-2 {
        fill: #ff4d4c;
        transition: opacity 0.1s ease;
      }

      
      .cls-1:hover {
        opacity: 0.1; 
      }

      .cls-2:hover {
        opacity: 0.1; 
      }
    </style>
  </defs>
  <script>
  console.log('Functional!');
  
const jalapenos = document.querySelector('#jalapenos');

function logThisId() {
    console.log(this);
    console.log('it works!:', this.id);
}

jalapenos.addEventListener('click', logThisId);
</script>
  <g id="jalapenos">
    <g id="jalapenos">
      <g id="jalapenos">
        <path id="jalapenos" class="cls-2" d="M343.26,117.39c-31.42.11-62.3,11.79-85.92,32.5-23.62,20.72-39.24,49.82-43.44,80.95,0,.25.03.51.05.76-.07.34-.12.68-.16,1.02v192.29c-.17,23.47-13.09,47.3-32.67,60.23-12.62,8.34-28.15,12.65-43.26,12h-.1c-.16-.01-.32-.02-.47-.03H59.3c-14.86-.83-29.51,4.29-40.61,14.23-11.29,10.12-18.04,24.44-18.65,39.59-.64,15.93,5.57,31.46,17.01,42.56,11.26,10.93,26.65,16.64,42.3,15.76h167.77c.3-.04.59-.08.89-.14.2.02.41.04.62.05,43.65-4.94,85.92-20.61,122.23-45.32,49.96-33.99,87.85-84.85,106.11-142.45.11-.37.2-.74.28-1.12.02-.06.05-.12.07-.18,9.82-46.95,14.39-94.99,13.61-142.95-.42-25.69-2.37-51.36-5.83-76.82v-.04c-.16-1.17-.48-2.31-.94-3.4-.08-.18-.17-.37-.25-.55,0,0,0,0,0,0-10.09-23.32-26.98-43.45-48.21-57.42-21.4-14.08-46.8-21.64-72.42-21.56v.02ZM343.35,144.06c20.28-.07,40.73,6.02,57.67,17.17,16.46,10.83,29.83,26.6,37.89,44.59,3.17,23.8,4.96,47.79,5.35,71.79.74,45.74-3.6,91.56-12.91,136.34-16.49,51.51-50.78,97.45-95.5,127.87-32.51,22.12-70.53,36.27-109.59,40.8H59.16c-.13.02-.27.04-.4.06-.18-.01-.35-.02-.53-.03-8.04.56-16.82-2.65-22.6-8.26-5.78-5.61-9.25-14.3-8.93-22.35.31-7.69,4.06-15.66,9.79-20.8s14.07-8,21.74-7.46c.14,0,.28-.02.42-.03.17.02.34.04.51.06h78.01c20.7.79,41.36-4.98,58.64-16.41,27.37-18.09,44.41-49.49,44.64-82.3v-191.49c3.48-24.28,16.04-47.51,34.47-63.68,18.63-16.34,43.64-25.81,68.43-25.89h0Z"/>
        <path id="jalapenos" class="cls-1" d="M402.1,0c-4.74-.07-9.48.33-14.17,1.2-12.49,2.32-24.2,7.97-33.8,16.3-13.2,11.46-21.81,27.51-24.05,44.85,0,.23,0,.45,0,.68-.05.34-.09.68-.11,1.03v54.13c4.41-.47,8.84-.78,13.29-.8,4.48-.03,8.93.29,13.38.73v-53.06c1.53-10.41,7.04-20.54,14.98-27.42,5.95-5.17,13.44-8.77,21.19-10.21s16.04-.77,23.45,1.91c6.93,2.5,14.57-1.08,17.07-8h0c2.5-6.93-1.08-14.57-8.01-17.07-5.98-2.16-12.2-3.51-18.49-4.02-1.57-.13-3.16-.2-4.73-.23h0Z"/>
      </g>
    </g>
  </g>
</svg>