<svg id="peach" data-name="peach" xmlns="http://www.w3.org/2000/svg" viewBox="0 0 777.78 795.27" class="spin">
    <defs>
        <style>
            .cls-1 {
                fill: #5c913b;
            }

            .cls-1, .cls-2, .cls-3, .cls-4 {
                stroke-width: 0px;
            }

            .cls-2 {
                fill: #77b255;
            }

            .cls-3 {
                fill: #dd2e44;
            }

            .cls-4 {
                fill: #ff886c;
            }

            .spin:hover {
                animation: spinAnimation 2s infinite linear;
            }

            @keyframes spinAnimation {
                from {
                    transform: rotate(0deg);
                }
                to {
                    transform: rotate(360deg);
                }
            }
        </style>
    </defs>
    <script>
    console.log('Functional!');
  
const peach = document.querySelector('#peach');
   const peach = document.querySelector('#peach');

function logThisId() {
    console.log(this);
    console.log('it works!:', this.id);
}

peach.addEventListener('click', logThisId);
</script>
  <g id="peach" data-name="peach">
    <path class="cls-1" d="M1.38,111.11S109.71,0,223.6,0c136.13,0,176.4,109.71,176.4,109.71,0,0,13.89-88.89,111.11-88.89s154.18,69.44,154.18,69.44c0,0-79.16,47.22-102.78,56.93-62.24,25.62-252.78,79.16-341.67,56.93S1.38,111.11,1.38,111.11Z"/>
    <path class="cls-4" d="M377.78,130.56s23.16-19.91,133.33-19.91c145.38,0,266.67,106.93,266.67,287.27,0,256.24-332.4,397.36-332.4,397.36,0,0-445.38-23.98-445.38-398.56C0,175.4,150,108.33,244.44,108.33c110.18,0,133.33,22.22,133.33,22.22Z"/>
    <path class="cls-2" d="M1.38,111.11S109.71,0,223.6,0c136.13,0,176.4,109.71,176.4,109.71,0,0-90.27,116.67-179.16,94.44S1.38,111.11,1.38,111.11h0Z"/>
    <path class="cls-3" d="M488.87,663.89c-12.27-.01-22.21-9.97-22.2-22.24,0-4.38,1.3-8.67,3.74-12.31.33-.49,40.71-64.6,40.71-209.89s-101.73-226.27-102.78-227.09c-9.69-7.54-11.43-21.5-3.89-31.19,7.54-9.69,21.5-11.43,31.19-3.89.16.13.32.26.48.39,4.87,3.89,119.44,97.42,119.44,261.78s-46.2,231.6-48.18,234.56c-4.12,6.19-11.07,9.91-18.51,9.89Z"/>
  </g>
</svg>